<svg xmlns="http://www.w3.org/2000/svg" xml:space="preserve" xmlns:xlink="http://www.w3.org/1999/xlink" style="max-width: 100%;height: auto;" width="999" height="999" viewBox="0 0 999 999">
<rect width="999" height="999" fill="#ffffff" x="0" y="0"  />
<g  fill="#000000">
<g transform="translate(270,54) scale(4.635)"><rect width="6" height="6"/></g>
<g transform="translate(378,54) scale(4.635)"><rect width="6" height="6"/></g>
<g transform="translate(405,54) scale(4.635)"><rect width="6" height="6"/></g>
<g transform="translate(459,54) scale(4.635)"><rect width="6" height="6"/></g>
<g transform="translate(513,54) scale(4.635)"><rect width="6" height="6"/></g>
<g transform="translate(567,54) scale(4.635)"><rect width="6" height="6"/></g>
<g transform="translate(594,54) scale(4.635)"><rect width="6" height="6"/></g>
<g transform="translate(621,54) scale(4.635)"><rect width="6" height="6"/></g>
<g transform="translate(675,54) scale(4.635)"><rect width="6" height="6"/></g>
<g transform="translate(270,81) scale(4.635)"><rect width="6" height="6"/></g>
<g transform="translate(297,81) scale(4.635)"><rect width="6" height="6"/></g>
<g transform="translate(351,81) scale(4.635)"><rect width="6" height="6"/></g>
<g transform="translate(432,81) scale(4.635)"><rect width="6" height="6"/></g>
<g transform="translate(459,81) scale(4.635)"><rect width="6" height="6"/></g>
<g transform="translate(567,81) scale(4.635)"><rect width="6" height="6"/></g>
<g transform="translate(594,81) scale(4.635)"><rect width="6" height="6"/></g>
<g transform="translate(270,108) scale(4.635)"><rect width="6" height="6"/></g>
<g transform="translate(324,108) scale(4.635)"><rect width="6" height="6"/></g>
<g transform="translate(378,108) scale(4.635)"><rect width="6" height="6"/></g>
<g transform="translate(432,108) scale(4.635)"><rect width="6" height="6"/></g>
<g transform="translate(621,108) scale(4.635)"><rect width="6" height="6"/></g>
<g transform="translate(648,108) scale(4.635)"><rect width="6" height="6"/></g>
<g transform="translate(702,108) scale(4.635)"><rect width="6" height="6"/></g>
<g transform="translate(297,135) scale(4.635)"><rect width="6" height="6"/></g>
<g transform="translate(324,135) scale(4.635)"><rect width="6" height="6"/></g>
<g transform="translate(378,135) scale(4.635)"><rect width="6" height="6"/></g>
<g transform="translate(432,135) scale(4.635)"><rect width="6" height="6"/></g>
<g transform="translate(459,135) scale(4.635)"><rect width="6" height="6"/></g>
<g transform="translate(486,135) scale(4.635)"><rect width="6" height="6"/></g>
<g transform="translate(594,135) scale(4.635)"><rect width="6" height="6"/></g>
<g transform="translate(648,135) scale(4.635)"><rect width="6" height="6"/></g>
<g transform="translate(702,135) scale(4.635)"><rect width="6" height="6"/></g>
<g transform="translate(351,162) scale(4.635)"><rect width="6" height="6"/></g>
<g transform="translate(378,162) scale(4.635)"><rect width="6" height="6"/></g>
<g transform="translate(405,162) scale(4.635)"><rect width="6" height="6"/></g>
<g transform="translate(486,162) scale(4.635)"><rect width="6" height="6"/></g>
<g transform="translate(513,162) scale(4.635)"><rect width="6" height="6"/></g>
<g transform="translate(540,162) scale(4.635)"><rect width="6" height="6"/></g>
<g transform="translate(594,162) scale(4.635)"><rect width="6" height="6"/></g>
<g transform="translate(648,162) scale(4.635)"><rect width="6" height="6"/></g>
<g transform="translate(675,162) scale(4.635)"><rect width="6" height="6"/></g>
<g transform="translate(702,162) scale(4.635)"><rect width="6" height="6"/></g>
<g transform="translate(270,189) scale(4.635)"><rect width="6" height="6"/></g>
<g transform="translate(324,189) scale(4.635)"><rect width="6" height="6"/></g>
<g transform="translate(378,189) scale(4.635)"><rect width="6" height="6"/></g>
<g transform="translate(405,189) scale(4.635)"><rect width="6" height="6"/></g>
<g transform="translate(432,189) scale(4.635)"><rect width="6" height="6"/></g>
<g transform="translate(459,189) scale(4.635)"><rect width="6" height="6"/></g>
<g transform="translate(540,189) scale(4.635)"><rect width="6" height="6"/></g>
<g transform="translate(621,189) scale(4.635)"><rect width="6" height="6"/></g>
<g transform="translate(270,216) scale(4.635)"><rect width="6" height="6"/></g>
<g transform="translate(324,216) scale(4.635)"><rect width="6" height="6"/></g>
<g transform="translate(378,216) scale(4.635)"><rect width="6" height="6"/></g>
<g transform="translate(432,216) scale(4.635)"><rect width="6" height="6"/></g>
<g transform="translate(486,216) scale(4.635)"><rect width="6" height="6"/></g>
<g transform="translate(540,216) scale(4.635)"><rect width="6" height="6"/></g>
<g transform="translate(594,216) scale(4.635)"><rect width="6" height="6"/></g>
<g transform="translate(648,216) scale(4.635)"><rect width="6" height="6"/></g>
<g transform="translate(702,216) scale(4.635)"><rect width="6" height="6"/></g>
<g transform="translate(270,243) scale(4.635)"><rect width="6" height="6"/></g>
<g transform="translate(297,243) scale(4.635)"><rect width="6" height="6"/></g>
<g transform="translate(324,243) scale(4.635)"><rect width="6" height="6"/></g>
<g transform="translate(405,243) scale(4.635)"><rect width="6" height="6"/></g>
<g transform="translate(621,243) scale(4.635)"><rect width="6" height="6"/></g>
<g transform="translate(648,243) scale(4.635)"><rect width="6" height="6"/></g>
<g transform="translate(675,243) scale(4.635)"><rect width="6" height="6"/></g>
<g transform="translate(108,270) scale(4.635)"><rect width="6" height="6"/></g>
<g transform="translate(135,270) scale(4.635)"><rect width="6" height="6"/></g>
<g transform="translate(162,270) scale(4.635)"><rect width="6" height="6"/></g>
<g transform="translate(216,270) scale(4.635)"><rect width="6" height="6"/></g>
<g transform="translate(270,270) scale(4.635)"><rect width="6" height="6"/></g>
<g transform="translate(297,270) scale(4.635)"><rect width="6" height="6"/></g>
<g transform="translate(378,270) scale(4.635)"><rect width="6" height="6"/></g>
<g transform="translate(459,270) scale(4.635)"><rect width="6" height="6"/></g>
<g transform="translate(486,270) scale(4.635)"><rect width="6" height="6"/></g>
<g transform="translate(567,270) scale(4.635)"><rect width="6" height="6"/></g>
<g transform="translate(648,270) scale(4.635)"><rect width="6" height="6"/></g>
<g transform="translate(675,270) scale(4.635)"><rect width="6" height="6"/></g>
<g transform="translate(702,270) scale(4.635)"><rect width="6" height="6"/></g>
<g transform="translate(729,270) scale(4.635)"><rect width="6" height="6"/></g>
<g transform="translate(756,270) scale(4.635)"><rect width="6" height="6"/></g>
<g transform="translate(783,270) scale(4.635)"><rect width="6" height="6"/></g>
<g transform="translate(864,270) scale(4.635)"><rect width="6" height="6"/></g>
<g transform="translate(891,270) scale(4.635)"><rect width="6" height="6"/></g>
<g transform="translate(918,270) scale(4.635)"><rect width="6" height="6"/></g>
<g transform="translate(81,297) scale(4.635)"><rect width="6" height="6"/></g>
<g transform="translate(162,297) scale(4.635)"><rect width="6" height="6"/></g>
<g transform="translate(243,297) scale(4.635)"><rect width="6" height="6"/></g>
<g transform="translate(378,297) scale(4.635)"><rect width="6" height="6"/></g>
<g transform="translate(405,297) scale(4.635)"><rect width="6" height="6"/></g>
<g transform="translate(540,297) scale(4.635)"><rect width="6" height="6"/></g>
<g transform="translate(594,297) scale(4.635)"><rect width="6" height="6"/></g>
<g transform="translate(621,297) scale(4.635)"><rect width="6" height="6"/></g>
<g transform="translate(675,297) scale(4.635)"><rect width="6" height="6"/></g>
<g transform="translate(756,297) scale(4.635)"><rect width="6" height="6"/></g>
<g transform="translate(864,297) scale(4.635)"><rect width="6" height="6"/></g>
<g transform="translate(891,297) scale(4.635)"><rect width="6" height="6"/></g>
<g transform="translate(918,297) scale(4.635)"><rect width="6" height="6"/></g>
<g transform="translate(81,324) scale(4.635)"><rect width="6" height="6"/></g>
<g transform="translate(108,324) scale(4.635)"><rect width="6" height="6"/></g>
<g transform="translate(189,324) scale(4.635)"><rect width="6" height="6"/></g>
<g transform="translate(216,324) scale(4.635)"><rect width="6" height="6"/></g>
<g transform="translate(270,324) scale(4.635)"><rect width="6" height="6"/></g>
<g transform="translate(324,324) scale(4.635)"><rect width="6" height="6"/></g>
<g transform="translate(378,324) scale(4.635)"><rect width="6" height="6"/></g>
<g transform="translate(459,324) scale(4.635)"><rect width="6" height="6"/></g>
<g transform="translate(513,324) scale(4.635)"><rect width="6" height="6"/></g>
<g transform="translate(567,324) scale(4.635)"><rect width="6" height="6"/></g>
<g transform="translate(594,324) scale(4.635)"><rect width="6" height="6"/></g>
<g transform="translate(621,324) scale(4.635)"><rect width="6" height="6"/></g>
<g transform="translate(702,324) scale(4.635)"><rect width="6" height="6"/></g>
<g transform="translate(729,324) scale(4.635)"><rect width="6" height="6"/></g>
<g transform="translate(756,324) scale(4.635)"><rect width="6" height="6"/></g>
<g transform="translate(783,324) scale(4.635)"><rect width="6" height="6"/></g>
<g transform="translate(810,324) scale(4.635)"><rect width="6" height="6"/></g>
<g transform="translate(864,324) scale(4.635)"><rect width="6" height="6"/></g>
<g transform="translate(891,324) scale(4.635)"><rect width="6" height="6"/></g>
<g transform="translate(54,351) scale(4.635)"><rect width="6" height="6"/></g>
<g transform="translate(243,351) scale(4.635)"><rect width="6" height="6"/></g>
<g transform="translate(270,351) scale(4.635)"><rect width="6" height="6"/></g>
<g transform="translate(324,351) scale(4.635)"><rect width="6" height="6"/></g>
<g transform="translate(432,351) scale(4.635)"><rect width="6" height="6"/></g>
<g transform="translate(513,351) scale(4.635)"><rect width="6" height="6"/></g>
<g transform="translate(540,351) scale(4.635)"><rect width="6" height="6"/></g>
<g transform="translate(594,351) scale(4.635)"><rect width="6" height="6"/></g>
<g transform="translate(621,351) scale(4.635)"><rect width="6" height="6"/></g>
<g transform="translate(648,351) scale(4.635)"><rect width="6" height="6"/></g>
<g transform="translate(675,351) scale(4.635)"><rect width="6" height="6"/></g>
<g transform="translate(702,351) scale(4.635)"><rect width="6" height="6"/></g>
<g transform="translate(783,351) scale(4.635)"><rect width="6" height="6"/></g>
<g transform="translate(837,351) scale(4.635)"><rect width="6" height="6"/></g>
<g transform="translate(864,351) scale(4.635)"><rect width="6" height="6"/></g>
<g transform="translate(81,378) scale(4.635)"><rect width="6" height="6"/></g>
<g transform="translate(135,378) scale(4.635)"><rect width="6" height="6"/></g>
<g transform="translate(162,378) scale(4.635)"><rect width="6" height="6"/></g>
<g transform="translate(189,378) scale(4.635)"><rect width="6" height="6"/></g>
<g transform="translate(216,378) scale(4.635)"><rect width="6" height="6"/></g>
<g transform="translate(297,378) scale(4.635)"><rect width="6" height="6"/></g>
<g transform="translate(324,378) scale(4.635)"><rect width="6" height="6"/></g>
<g transform="translate(459,378) scale(4.635)"><rect width="6" height="6"/></g>
<g transform="translate(594,378) scale(4.635)"><rect width="6" height="6"/></g>
<g transform="translate(621,378) scale(4.635)"><rect width="6" height="6"/></g>
<g transform="translate(729,378) scale(4.635)"><rect width="6" height="6"/></g>
<g transform="translate(783,378) scale(4.635)"><rect width="6" height="6"/></g>
<g transform="translate(864,378) scale(4.635)"><rect width="6" height="6"/></g>
<g transform="translate(54,405) scale(4.635)"><rect width="6" height="6"/></g>
<g transform="translate(81,405) scale(4.635)"><rect width="6" height="6"/></g>
<g transform="translate(135,405) scale(4.635)"><rect width="6" height="6"/></g>
<g transform="translate(162,405) scale(4.635)"><rect width="6" height="6"/></g>
<g transform="translate(189,405) scale(4.635)"><rect width="6" height="6"/></g>
<g transform="translate(297,405) scale(4.635)"><rect width="6" height="6"/></g>
<g transform="translate(405,405) scale(4.635)"><rect width="6" height="6"/></g>
<g transform="translate(486,405) scale(4.635)"><rect width="6" height="6"/></g>
<g transform="translate(540,405) scale(4.635)"><rect width="6" height="6"/></g>
<g transform="translate(567,405) scale(4.635)"><rect width="6" height="6"/></g>
<g transform="translate(594,405) scale(4.635)"><rect width="6" height="6"/></g>
<g transform="translate(621,405) scale(4.635)"><rect width="6" height="6"/></g>
<g transform="translate(675,405) scale(4.635)"><rect width="6" height="6"/></g>
<g transform="translate(756,405) scale(4.635)"><rect width="6" height="6"/></g>
<g transform="translate(810,405) scale(4.635)"><rect width="6" height="6"/></g>
<g transform="translate(54,432) scale(4.635)"><rect width="6" height="6"/></g>
<g transform="translate(81,432) scale(4.635)"><rect width="6" height="6"/></g>
<g transform="translate(108,432) scale(4.635)"><rect width="6" height="6"/></g>
<g transform="translate(216,432) scale(4.635)"><rect width="6" height="6"/></g>
<g transform="translate(324,432) scale(4.635)"><rect width="6" height="6"/></g>
<g transform="translate(432,432) scale(4.635)"><rect width="6" height="6"/></g>
<g transform="translate(459,432) scale(4.635)"><rect width="6" height="6"/></g>
<g transform="translate(513,432) scale(4.635)"><rect width="6" height="6"/></g>
<g transform="translate(567,432) scale(4.635)"><rect width="6" height="6"/></g>
<g transform="translate(621,432) scale(4.635)"><rect width="6" height="6"/></g>
<g transform="translate(648,432) scale(4.635)"><rect width="6" height="6"/></g>
<g transform="translate(702,432) scale(4.635)"><rect width="6" height="6"/></g>
<g transform="translate(729,432) scale(4.635)"><rect width="6" height="6"/></g>
<g transform="translate(756,432) scale(4.635)"><rect width="6" height="6"/></g>
<g transform="translate(810,432) scale(4.635)"><rect width="6" height="6"/></g>
<g transform="translate(837,432) scale(4.635)"><rect width="6" height="6"/></g>
<g transform="translate(864,432) scale(4.635)"><rect width="6" height="6"/></g>
<g transform="translate(891,432) scale(4.635)"><rect width="6" height="6"/></g>
<g transform="translate(54,459) scale(4.635)"><rect width="6" height="6"/></g>
<g transform="translate(108,459) scale(4.635)"><rect width="6" height="6"/></g>
<g transform="translate(189,459) scale(4.635)"><rect width="6" height="6"/></g>
<g transform="translate(324,459) scale(4.635)"><rect width="6" height="6"/></g>
<g transform="translate(351,459) scale(4.635)"><rect width="6" height="6"/></g>
<g transform="translate(378,459) scale(4.635)"><rect width="6" height="6"/></g>
<g transform="translate(459,459) scale(4.635)"><rect width="6" height="6"/></g>
<g transform="translate(486,459) scale(4.635)"><rect width="6" height="6"/></g>
<g transform="translate(540,459) scale(4.635)"><rect width="6" height="6"/></g>
<g transform="translate(594,459) scale(4.635)"><rect width="6" height="6"/></g>
<g transform="translate(621,459) scale(4.635)"><rect width="6" height="6"/></g>
<g transform="translate(702,459) scale(4.635)"><rect width="6" height="6"/></g>
<g transform="translate(756,459) scale(4.635)"><rect width="6" height="6"/></g>
<g transform="translate(837,459) scale(4.635)"><rect width="6" height="6"/></g>
<g transform="translate(891,459) scale(4.635)"><rect width="6" height="6"/></g>
<g transform="translate(81,486) scale(4.635)"><rect width="6" height="6"/></g>
<g transform="translate(135,486) scale(4.635)"><rect width="6" height="6"/></g>
<g transform="translate(162,486) scale(4.635)"><rect width="6" height="6"/></g>
<g transform="translate(216,486) scale(4.635)"><rect width="6" height="6"/></g>
<g transform="translate(270,486) scale(4.635)"><rect width="6" height="6"/></g>
<g transform="translate(297,486) scale(4.635)"><rect width="6" height="6"/></g>
<g transform="translate(351,486) scale(4.635)"><rect width="6" height="6"/></g>
<g transform="translate(432,486) scale(4.635)"><rect width="6" height="6"/></g>
<g transform="translate(486,486) scale(4.635)"><rect width="6" height="6"/></g>
<g transform="translate(513,486) scale(4.635)"><rect width="6" height="6"/></g>
<g transform="translate(648,486) scale(4.635)"><rect width="6" height="6"/></g>
<g transform="translate(702,486) scale(4.635)"><rect width="6" height="6"/></g>
<g transform="translate(729,486) scale(4.635)"><rect width="6" height="6"/></g>
<g transform="translate(783,486) scale(4.635)"><rect width="6" height="6"/></g>
<g transform="translate(810,486) scale(4.635)"><rect width="6" height="6"/></g>
<g transform="translate(864,486) scale(4.635)"><rect width="6" height="6"/></g>
<g transform="translate(54,513) scale(4.635)"><rect width="6" height="6"/></g>
<g transform="translate(270,513) scale(4.635)"><rect width="6" height="6"/></g>
<g transform="translate(324,513) scale(4.635)"><rect width="6" height="6"/></g>
<g transform="translate(432,513) scale(4.635)"><rect width="6" height="6"/></g>
<g transform="translate(459,513) scale(4.635)"><rect width="6" height="6"/></g>
<g transform="translate(486,513) scale(4.635)"><rect width="6" height="6"/></g>
<g transform="translate(513,513) scale(4.635)"><rect width="6" height="6"/></g>
<g transform="translate(540,513) scale(4.635)"><rect width="6" height="6"/></g>
<g transform="translate(567,513) scale(4.635)"><rect width="6" height="6"/></g>
<g transform="translate(594,513) scale(4.635)"><rect width="6" height="6"/></g>
<g transform="translate(621,513) scale(4.635)"><rect width="6" height="6"/></g>
<g transform="translate(675,513) scale(4.635)"><rect width="6" height="6"/></g>
<g transform="translate(729,513) scale(4.635)"><rect width="6" height="6"/></g>
<g transform="translate(756,513) scale(4.635)"><rect width="6" height="6"/></g>
<g transform="translate(837,513) scale(4.635)"><rect width="6" height="6"/></g>
<g transform="translate(918,513) scale(4.635)"><rect width="6" height="6"/></g>
<g transform="translate(135,540) scale(4.635)"><rect width="6" height="6"/></g>
<g transform="translate(162,540) scale(4.635)"><rect width="6" height="6"/></g>
<g transform="translate(216,540) scale(4.635)"><rect width="6" height="6"/></g>
<g transform="translate(297,540) scale(4.635)"><rect width="6" height="6"/></g>
<g transform="translate(324,540) scale(4.635)"><rect width="6" height="6"/></g>
<g transform="translate(378,540) scale(4.635)"><rect width="6" height="6"/></g>
<g transform="translate(513,540) scale(4.635)"><rect width="6" height="6"/></g>
<g transform="translate(594,540) scale(4.635)"><rect width="6" height="6"/></g>
<g transform="translate(621,540) scale(4.635)"><rect width="6" height="6"/></g>
<g transform="translate(648,540) scale(4.635)"><rect width="6" height="6"/></g>
<g transform="translate(810,540) scale(4.635)"><rect width="6" height="6"/></g>
<g transform="translate(837,540) scale(4.635)"><rect width="6" height="6"/></g>
<g transform="translate(891,540) scale(4.635)"><rect width="6" height="6"/></g>
<g transform="translate(81,567) scale(4.635)"><rect width="6" height="6"/></g>
<g transform="translate(135,567) scale(4.635)"><rect width="6" height="6"/></g>
<g transform="translate(243,567) scale(4.635)"><rect width="6" height="6"/></g>
<g transform="translate(270,567) scale(4.635)"><rect width="6" height="6"/></g>
<g transform="translate(324,567) scale(4.635)"><rect width="6" height="6"/></g>
<g transform="translate(378,567) scale(4.635)"><rect width="6" height="6"/></g>
<g transform="translate(405,567) scale(4.635)"><rect width="6" height="6"/></g>
<g transform="translate(459,567) scale(4.635)"><rect width="6" height="6"/></g>
<g transform="translate(486,567) scale(4.635)"><rect width="6" height="6"/></g>
<g transform="translate(540,567) scale(4.635)"><rect width="6" height="6"/></g>
<g transform="translate(594,567) scale(4.635)"><rect width="6" height="6"/></g>
<g transform="translate(621,567) scale(4.635)"><rect width="6" height="6"/></g>
<g transform="translate(648,567) scale(4.635)"><rect width="6" height="6"/></g>
<g transform="translate(675,567) scale(4.635)"><rect width="6" height="6"/></g>
<g transform="translate(729,567) scale(4.635)"><rect width="6" height="6"/></g>
<g transform="translate(756,567) scale(4.635)"><rect width="6" height="6"/></g>
<g transform="translate(810,567) scale(4.635)"><rect width="6" height="6"/></g>
<g transform="translate(837,567) scale(4.635)"><rect width="6" height="6"/></g>
<g transform="translate(864,567) scale(4.635)"><rect width="6" height="6"/></g>
<g transform="translate(891,567) scale(4.635)"><rect width="6" height="6"/></g>
<g transform="translate(54,594) scale(4.635)"><rect width="6" height="6"/></g>
<g transform="translate(108,594) scale(4.635)"><rect width="6" height="6"/></g>
<g transform="translate(162,594) scale(4.635)"><rect width="6" height="6"/></g>
<g transform="translate(189,594) scale(4.635)"><rect width="6" height="6"/></g>
<g transform="translate(216,594) scale(4.635)"><rect width="6" height="6"/></g>
<g transform="translate(270,594) scale(4.635)"><rect width="6" height="6"/></g>
<g transform="translate(297,594) scale(4.635)"><rect width="6" height="6"/></g>
<g transform="translate(405,594) scale(4.635)"><rect width="6" height="6"/></g>
<g transform="translate(432,594) scale(4.635)"><rect width="6" height="6"/></g>
<g transform="translate(486,594) scale(4.635)"><rect width="6" height="6"/></g>
<g transform="translate(540,594) scale(4.635)"><rect width="6" height="6"/></g>
<g transform="translate(594,594) scale(4.635)"><rect width="6" height="6"/></g>
<g transform="translate(648,594) scale(4.635)"><rect width="6" height="6"/></g>
<g transform="translate(702,594) scale(4.635)"><rect width="6" height="6"/></g>
<g transform="translate(756,594) scale(4.635)"><rect width="6" height="6"/></g>
<g transform="translate(783,594) scale(4.635)"><rect width="6" height="6"/></g>
<g transform="translate(810,594) scale(4.635)"><rect width="6" height="6"/></g>
<g transform="translate(891,594) scale(4.635)"><rect width="6" height="6"/></g>
<g transform="translate(54,621) scale(4.635)"><rect width="6" height="6"/></g>
<g transform="translate(81,621) scale(4.635)"><rect width="6" height="6"/></g>
<g transform="translate(108,621) scale(4.635)"><rect width="6" height="6"/></g>
<g transform="translate(135,621) scale(4.635)"><rect width="6" height="6"/></g>
<g transform="translate(162,621) scale(4.635)"><rect width="6" height="6"/></g>
<g transform="translate(189,621) scale(4.635)"><rect width="6" height="6"/></g>
<g transform="translate(243,621) scale(4.635)"><rect width="6" height="6"/></g>
<g transform="translate(270,621) scale(4.635)"><rect width="6" height="6"/></g>
<g transform="translate(297,621) scale(4.635)"><rect width="6" height="6"/></g>
<g transform="translate(405,621) scale(4.635)"><rect width="6" height="6"/></g>
<g transform="translate(459,621) scale(4.635)"><rect width="6" height="6"/></g>
<g transform="translate(486,621) scale(4.635)"><rect width="6" height="6"/></g>
<g transform="translate(513,621) scale(4.635)"><rect width="6" height="6"/></g>
<g transform="translate(540,621) scale(4.635)"><rect width="6" height="6"/></g>
<g transform="translate(621,621) scale(4.635)"><rect width="6" height="6"/></g>
<g transform="translate(675,621) scale(4.635)"><rect width="6" height="6"/></g>
<g transform="translate(756,621) scale(4.635)"><rect width="6" height="6"/></g>
<g transform="translate(864,621) scale(4.635)"><rect width="6" height="6"/></g>
<g transform="translate(918,621) scale(4.635)"><rect width="6" height="6"/></g>
<g transform="translate(54,648) scale(4.635)"><rect width="6" height="6"/></g>
<g transform="translate(108,648) scale(4.635)"><rect width="6" height="6"/></g>
<g transform="translate(135,648) scale(4.635)"><rect width="6" height="6"/></g>
<g transform="translate(216,648) scale(4.635)"><rect width="6" height="6"/></g>
<g transform="translate(270,648) scale(4.635)"><rect width="6" height="6"/></g>
<g transform="translate(297,648) scale(4.635)"><rect width="6" height="6"/></g>
<g transform="translate(324,648) scale(4.635)"><rect width="6" height="6"/></g>
<g transform="translate(378,648) scale(4.635)"><rect width="6" height="6"/></g>
<g transform="translate(432,648) scale(4.635)"><rect width="6" height="6"/></g>
<g transform="translate(459,648) scale(4.635)"><rect width="6" height="6"/></g>
<g transform="translate(486,648) scale(4.635)"><rect width="6" height="6"/></g>
<g transform="translate(513,648) scale(4.635)"><rect width="6" height="6"/></g>
<g transform="translate(594,648) scale(4.635)"><rect width="6" height="6"/></g>
<g transform="translate(756,648) scale(4.635)"><rect width="6" height="6"/></g>
<g transform="translate(864,648) scale(4.635)"><rect width="6" height="6"/></g>
<g transform="translate(54,675) scale(4.635)"><rect width="6" height="6"/></g>
<g transform="translate(162,675) scale(4.635)"><rect width="6" height="6"/></g>
<g transform="translate(243,675) scale(4.635)"><rect width="6" height="6"/></g>
<g transform="translate(324,675) scale(4.635)"><rect width="6" height="6"/></g>
<g transform="translate(405,675) scale(4.635)"><rect width="6" height="6"/></g>
<g transform="translate(486,675) scale(4.635)"><rect width="6" height="6"/></g>
<g transform="translate(567,675) scale(4.635)"><rect width="6" height="6"/></g>
<g transform="translate(594,675) scale(4.635)"><rect width="6" height="6"/></g>
<g transform="translate(621,675) scale(4.635)"><rect width="6" height="6"/></g>
<g transform="translate(675,675) scale(4.635)"><rect width="6" height="6"/></g>
<g transform="translate(702,675) scale(4.635)"><rect width="6" height="6"/></g>
<g transform="translate(729,675) scale(4.635)"><rect width="6" height="6"/></g>
<g transform="translate(837,675) scale(4.635)"><rect width="6" height="6"/></g>
<g transform="translate(864,675) scale(4.635)"><rect width="6" height="6"/></g>
<g transform="translate(891,675) scale(4.635)"><rect width="6" height="6"/></g>
<g transform="translate(54,702) scale(4.635)"><rect width="6" height="6"/></g>
<g transform="translate(108,702) scale(4.635)"><rect width="6" height="6"/></g>
<g transform="translate(135,702) scale(4.635)"><rect width="6" height="6"/></g>
<g transform="translate(216,702) scale(4.635)"><rect width="6" height="6"/></g>
<g transform="translate(243,702) scale(4.635)"><rect width="6" height="6"/></g>
<g transform="translate(297,702) scale(4.635)"><rect width="6" height="6"/></g>
<g transform="translate(324,702) scale(4.635)"><rect width="6" height="6"/></g>
<g transform="translate(432,702) scale(4.635)"><rect width="6" height="6"/></g>
<g transform="translate(459,702) scale(4.635)"><rect width="6" height="6"/></g>
<g transform="translate(486,702) scale(4.635)"><rect width="6" height="6"/></g>
<g transform="translate(540,702) scale(4.635)"><rect width="6" height="6"/></g>
<g transform="translate(567,702) scale(4.635)"><rect width="6" height="6"/></g>
<g transform="translate(648,702) scale(4.635)"><rect width="6" height="6"/></g>
<g transform="translate(702,702) scale(4.635)"><rect width="6" height="6"/></g>
<g transform="translate(729,702) scale(4.635)"><rect width="6" height="6"/></g>
<g transform="translate(756,702) scale(4.635)"><rect width="6" height="6"/></g>
<g transform="translate(783,702) scale(4.635)"><rect width="6" height="6"/></g>
<g transform="translate(810,702) scale(4.635)"><rect width="6" height="6"/></g>
<g transform="translate(270,729) scale(4.635)"><rect width="6" height="6"/></g>
<g transform="translate(297,729) scale(4.635)"><rect width="6" height="6"/></g>
<g transform="translate(324,729) scale(4.635)"><rect width="6" height="6"/></g>
<g transform="translate(378,729) scale(4.635)"><rect width="6" height="6"/></g>
<g transform="translate(405,729) scale(4.635)"><rect width="6" height="6"/></g>
<g transform="translate(432,729) scale(4.635)"><rect width="6" height="6"/></g>
<g transform="translate(459,729) scale(4.635)"><rect width="6" height="6"/></g>
<g transform="translate(486,729) scale(4.635)"><rect width="6" height="6"/></g>
<g transform="translate(567,729) scale(4.635)"><rect width="6" height="6"/></g>
<g transform="translate(648,729) scale(4.635)"><rect width="6" height="6"/></g>
<g transform="translate(675,729) scale(4.635)"><rect width="6" height="6"/></g>
<g transform="translate(702,729) scale(4.635)"><rect width="6" height="6"/></g>
<g transform="translate(810,729) scale(4.635)"><rect width="6" height="6"/></g>
<g transform="translate(864,729) scale(4.635)"><rect width="6" height="6"/></g>
<g transform="translate(918,729) scale(4.635)"><rect width="6" height="6"/></g>
<g transform="translate(324,756) scale(4.635)"><rect width="6" height="6"/></g>
<g transform="translate(351,756) scale(4.635)"><rect width="6" height="6"/></g>
<g transform="translate(432,756) scale(4.635)"><rect width="6" height="6"/></g>
<g transform="translate(486,756) scale(4.635)"><rect width="6" height="6"/></g>
<g transform="translate(513,756) scale(4.635)"><rect width="6" height="6"/></g>
<g transform="translate(648,756) scale(4.635)"><rect width="6" height="6"/></g>
<g transform="translate(675,756) scale(4.635)"><rect width="6" height="6"/></g>
<g transform="translate(702,756) scale(4.635)"><rect width="6" height="6"/></g>
<g transform="translate(756,756) scale(4.635)"><rect width="6" height="6"/></g>
<g transform="translate(810,756) scale(4.635)"><rect width="6" height="6"/></g>
<g transform="translate(837,756) scale(4.635)"><rect width="6" height="6"/></g>
<g transform="translate(297,783) scale(4.635)"><rect width="6" height="6"/></g>
<g transform="translate(324,783) scale(4.635)"><rect width="6" height="6"/></g>
<g transform="translate(351,783) scale(4.635)"><rect width="6" height="6"/></g>
<g transform="translate(378,783) scale(4.635)"><rect width="6" height="6"/></g>
<g transform="translate(405,783) scale(4.635)"><rect width="6" height="6"/></g>
<g transform="translate(432,783) scale(4.635)"><rect width="6" height="6"/></g>
<g transform="translate(486,783) scale(4.635)"><rect width="6" height="6"/></g>
<g transform="translate(540,783) scale(4.635)"><rect width="6" height="6"/></g>
<g transform="translate(594,783) scale(4.635)"><rect width="6" height="6"/></g>
<g transform="translate(675,783) scale(4.635)"><rect width="6" height="6"/></g>
<g transform="translate(702,783) scale(4.635)"><rect width="6" height="6"/></g>
<g transform="translate(810,783) scale(4.635)"><rect width="6" height="6"/></g>
<g transform="translate(837,783) scale(4.635)"><rect width="6" height="6"/></g>
<g transform="translate(864,783) scale(4.635)"><rect width="6" height="6"/></g>
<g transform="translate(891,783) scale(4.635)"><rect width="6" height="6"/></g>
<g transform="translate(918,783) scale(4.635)"><rect width="6" height="6"/></g>
<g transform="translate(270,810) scale(4.635)"><rect width="6" height="6"/></g>
<g transform="translate(324,810) scale(4.635)"><rect width="6" height="6"/></g>
<g transform="translate(351,810) scale(4.635)"><rect width="6" height="6"/></g>
<g transform="translate(513,810) scale(4.635)"><rect width="6" height="6"/></g>
<g transform="translate(621,810) scale(4.635)"><rect width="6" height="6"/></g>
<g transform="translate(648,810) scale(4.635)"><rect width="6" height="6"/></g>
<g transform="translate(702,810) scale(4.635)"><rect width="6" height="6"/></g>
<g transform="translate(729,810) scale(4.635)"><rect width="6" height="6"/></g>
<g transform="translate(756,810) scale(4.635)"><rect width="6" height="6"/></g>
<g transform="translate(783,810) scale(4.635)"><rect width="6" height="6"/></g>
<g transform="translate(810,810) scale(4.635)"><rect width="6" height="6"/></g>
<g transform="translate(891,810) scale(4.635)"><rect width="6" height="6"/></g>
<g transform="translate(918,810) scale(4.635)"><rect width="6" height="6"/></g>
<g transform="translate(270,837) scale(4.635)"><rect width="6" height="6"/></g>
<g transform="translate(378,837) scale(4.635)"><rect width="6" height="6"/></g>
<g transform="translate(405,837) scale(4.635)"><rect width="6" height="6"/></g>
<g transform="translate(432,837) scale(4.635)"><rect width="6" height="6"/></g>
<g transform="translate(540,837) scale(4.635)"><rect width="6" height="6"/></g>
<g transform="translate(567,837) scale(4.635)"><rect width="6" height="6"/></g>
<g transform="translate(594,837) scale(4.635)"><rect width="6" height="6"/></g>
<g transform="translate(702,837) scale(4.635)"><rect width="6" height="6"/></g>
<g transform="translate(729,837) scale(4.635)"><rect width="6" height="6"/></g>
<g transform="translate(810,837) scale(4.635)"><rect width="6" height="6"/></g>
<g transform="translate(864,837) scale(4.635)"><rect width="6" height="6"/></g>
<g transform="translate(918,837) scale(4.635)"><rect width="6" height="6"/></g>
<g transform="translate(270,864) scale(4.635)"><rect width="6" height="6"/></g>
<g transform="translate(351,864) scale(4.635)"><rect width="6" height="6"/></g>
<g transform="translate(378,864) scale(4.635)"><rect width="6" height="6"/></g>
<g transform="translate(459,864) scale(4.635)"><rect width="6" height="6"/></g>
<g transform="translate(486,864) scale(4.635)"><rect width="6" height="6"/></g>
<g transform="translate(675,864) scale(4.635)"><rect width="6" height="6"/></g>
<g transform="translate(702,864) scale(4.635)"><rect width="6" height="6"/></g>
<g transform="translate(756,864) scale(4.635)"><rect width="6" height="6"/></g>
<g transform="translate(837,864) scale(4.635)"><rect width="6" height="6"/></g>
<g transform="translate(351,891) scale(4.635)"><rect width="6" height="6"/></g>
<g transform="translate(378,891) scale(4.635)"><rect width="6" height="6"/></g>
<g transform="translate(405,891) scale(4.635)"><rect width="6" height="6"/></g>
<g transform="translate(459,891) scale(4.635)"><rect width="6" height="6"/></g>
<g transform="translate(486,891) scale(4.635)"><rect width="6" height="6"/></g>
<g transform="translate(513,891) scale(4.635)"><rect width="6" height="6"/></g>
<g transform="translate(540,891) scale(4.635)"><rect width="6" height="6"/></g>
<g transform="translate(567,891) scale(4.635)"><rect width="6" height="6"/></g>
<g transform="translate(648,891) scale(4.635)"><rect width="6" height="6"/></g>
<g transform="translate(783,891) scale(4.635)"><rect width="6" height="6"/></g>
<g transform="translate(810,891) scale(4.635)"><rect width="6" height="6"/></g>
<g transform="translate(324,918) scale(4.635)"><rect width="6" height="6"/></g>
<g transform="translate(378,918) scale(4.635)"><rect width="6" height="6"/></g>
<g transform="translate(405,918) scale(4.635)"><rect width="6" height="6"/></g>
<g transform="translate(594,918) scale(4.635)"><rect width="6" height="6"/></g>
<g transform="translate(621,918) scale(4.635)"><rect width="6" height="6"/></g>
<g transform="translate(648,918) scale(4.635)"><rect width="6" height="6"/></g>
<g transform="translate(702,918) scale(4.635)"><rect width="6" height="6"/></g>
<g transform="translate(729,918) scale(4.635)"><rect width="6" height="6"/></g>
<g transform="translate(783,918) scale(4.635)"><rect width="6" height="6"/></g>
<g transform="translate(891,918) scale(4.635)"><rect width="6" height="6"/></g>
</g><g ><g transform="translate(54,54)"  fill="#000000"><g transform="scale(13.5)"><path d="M0,0v14h14V0H0z M12,12H2V2h10V12z"/></g></g>
<g transform="translate(756,54)"  fill="#000000"><g transform="scale(13.5)"><path d="M0,0v14h14V0H0z M12,12H2V2h10V12z"/></g></g>
<g transform="translate(54,756)"  fill="#000000"><g transform="scale(13.5)"><path d="M0,0v14h14V0H0z M12,12H2V2h10V12z"/></g></g>
<g transform="translate(108,108)"  fill="#000000"><g transform="scale(13.5)"><rect width="6" height="6"/></g></g>
<g transform="translate(810,108)"  fill="#000000"><g transform="scale(13.5)"><rect width="6" height="6"/></g></g>
<g transform="translate(108,810)"  fill="#000000"><g transform="scale(13.5)"><rect width="6" height="6"/></g></g></g>
</svg>